Format                                   : MPEG-4
Format profile                           : Base Media
Codec ID                                 : isom
File size                                : 1.32 GiB
Duration                                 : 1h 34mn
Overall bit rate mode                    : Variable
Overall bit rate                         : 2 009 Kbps
Movie name                               : Teen Wolf Too
Performer                                : Christopher Leitch
Genre                                    : Comedy
Recorded date                            : UTC 2010-03-15 07:00:00
Tagged date                              : UTC 2012-12-04 08:00:51
Cover                                    : Yes
desc                                     : More exciting, hilarious adventures with America's most handsome and hirsute heartthrob.  This teenage guy has a lot more problems than the average adolescent-because with the rising of each full moon, he turns into a werewolf!
ldes                                     : More exciting, hilarious adventures with America's most handsome and hirsute heartthrob.  This teenage guy has a lot more problems than the average adolescent-because with the rising of each full moon, he turns into a werewolf!

Video
ID                                       : 1
Format                                   : AVC
Format/Info                              : Advanced Video Codec
Format profile                           : Baseline@L3.0
Format settings, CABAC                   : No
Format settings, ReFrames                : 3 frames
Codec ID                                 : avc1
Codec ID/Info                            : Advanced Video Coding
Duration                                 : 1h 34mn
Bit rate                                 : 1 877 Kbps
Width                                    : 720 pixels
Height                                   : 398 pixels
Display aspect ratio                     : 16:9
Frame rate mode                          : Constant
Frame rate                               : 23.976 fps
Color space                              : YUV
Chroma subsampling                       : 4:2:0
Bit depth                                : 8 bits
Scan type                                : Progressive
Bits/(Pixel*Frame)                       : 0.273
Stream size                              : 1.24 GiB (93%)
Writing library                          : x264 core 102
Encoding settings                        : cabac=0 / ref=3 / deblock=1:0:0 / 

Audio
ID                                       : 2
Format                                   : AAC
Format/Info                              : Advanced Audio Codec
Format profile                           : LC
Codec ID                                 : 40
Duration                                 : 1h 34mn
Bit rate mode                            : Variable
Bit rate                                 : 128 Kbps
Maximum bit rate                         : 190 Kbps
Channel(s)                               : 2 channels
Channel positions                        : Front: L R
Sampling rate                            : 44.1 KHz
Compression mode                         : Lossy
Stream size                              : 86.3 MiB (6%)
Language                                 : English

Text
ID                                       : 3
Format                                   : Apple text
Codec ID                                 : text
Duration                                 : 1h 34mn
Bit rate mode                            : Variable
Bit rate                                 : 1 bps
Stream size                              : 518 Bytes (0%)
Encoded date                             : UTC 2012-12-04 08:00:51
Tagged date                              : UTC 2012-12-04 08:00:51

Storyline

Todd Howard is a struggling teenager. Nothing seems to be going very well for him, until he turns into a wolf. 